<svg xmlns="http://www.w3.org/2000/svg" version="1.1" xmlns:xlink="http://www.w3.org/1999/xlink" xmlns:svgjs="http://svgjs.dev/svgjs" viewBox="0 0 16.6528546435524 3.950946254798315"><g transform="matrix(0.6970704454210077,0,0,0.6970704454210077,3.120750114385811,1.6042831152124708)"><g transform="matrix(1,0,0,1,0,0)" clip-path="url(#SvgjsClipPath6716)"><g clip-path="url(#SvgjsClipPath6714c73ef201-c060-46b3-9521-2fd48fbf5089)"><path d=" M 12.558413986888663 0.14314019006028456 C 12.439850002159584 0.21108396225916215 12.398810262459278 0.36227587335389466 12.466747274358982 0.48084373185521645 C 12.534684286258676 0.5994115903565381 12.685873857135798 0.6404599505325056 12.804445589023908 0.5725296991528454 C 12.923017320912018 0.5045994477731851 12.964074301430202 0.35341221760517394 12.896150810791427 0.23483661271575307 C 12.863594448953808 0.17781494462232528 12.809680899956367 0.13609641999356692 12.746313734311574 0.11889207035736937 C 12.682946568666788 0.10168772072116794 12.61533751970983 0.11041254517992083 12.558413986888663 0.14314019006028456 Z" fill="#a4cb6a" transform="matrix(1,0,0,1,0,0)" fill-rule="evenodd"></path></g><g clip-path="url(#SvgjsClipPath6714c73ef201-c060-46b3-9521-2fd48fbf5089)"><path d=" M 13.497427353242141 1.2798958419112458 L 13.351133060608614 1.0265057273976703 C 13.346749628908059 1.0189080243993325 13.342777396766659 1.0110803904736292 13.339233524844161 1.0030566422147844 L 13.339233524844161 1.0030566422147844 L 13.339233524844161 1.0030566422147844 L 13.339233524844161 1.0030566422147844 L 13.339233524844161 1.0013067104847173 L 13.339233524844161 1.0013067104847173 L 13.339233524844161 1.0013067104847173 L 13.339233524844161 0.9995567787546497 L 13.339233524844161 0.9978068470245823 L 13.339233524844161 0.9978068470245823 L 13.339233524844161 0.9978068470245823 L 13.339233524844161 0.9960569152945188 L 13.339233524844161 0.9960569152945188 L 13.339233524844161 0.9960569152945188 L 13.339233524844161 0.9943069835644515 L 13.339233524844161 0.9943069835644515 L 13.339233524844161 0.9943069835644515 L 13.339233524844161 0.9925570518343839 L 13.339233524844161 0.9904571337583022 L 13.339233524844161 0.9904571337583022 L 13.339233524844161 0.9904571337583022 L 13.339233524844161 0.9887072020282349 L 13.339233524844161 0.986607283952157 L 13.339233524844161 0.9848573522220897 L 13.339233524844161 0.9848573522220897 L 13.339233524844161 0.9848573522220897 L 13.339233524844161 0.9848573522220897 L 13.339233524844161 0.9827574341460118 L 13.339233524844161 0.9806575160699301 L 13.339233524844161 0.9789075843398628 L 13.339233524844161 0.9621082397312365 L 13.339233524844161 0.9621082397312365 L 13.339233524844161 0.9621082397312365 L 13.339233524844161 0.9621082397312365 L 13.339233524844161 0.9600083216551586 L 13.339233524844161 0.9582583899250913 L 13.339233524844161 0.9582583899250913 L 13.339233524844161 0.9561584718490096 L 13.339233524844161 0.9540585537729317 L 13.339233524844161 0.9540585537729317 L 13.339233524844161 0.9540585537729317 L 13.339233524844161 0.95195863569685 L 13.339233524844161 0.9456588814686128 L 13.339233524844161 0.9456588814686128 L 13.339233524844161 0.9435589633925349 L 13.339233524844161 0.9414590453164532 L 13.339233524844161 0.930609468590046 L 13.339233524844161 0.930609468590046 L 13.339233524844161 0.9260596460918723 L 13.339233524844161 0.9260596460918723 L 13.339233524844161 0.9155600557114757 L 13.339233524844161 0.9155600557114757 L 13.339233524844161 0.9026105609089868 L 13.339233524844161 0.9026105609089868 L 13.339233524844161 0.8861612026463669 L 13.339233524844161 0.8861612026463669 L 13.339233524844161 0.5771232591166869 C 13.33966256249574 0.5410710370690307 13.330481565928956 0.5055550766659284 13.312634562547155 0.474227273388801 C 13.294376604954437 0.44320395886250885 13.268313135833012 0.4175024823677612 13.237037511808307 0.3996801816879808 L 13.097042973403006 0.3198832947969661 L 12.961598257495895 0.5547241329718403 C 12.921659108080151 0.6259892346178316 12.845891070196174 0.6696498947460091 12.764205958344435 0.6684696954261412 L 12.471267386731364 0.6684696954261412 C 12.335962905862058 0.6684697012451774 12.226276955203346 0.7781556565036506 12.226276955058404 0.9134601373729531 C 12.226276954913464 1.0487646182422554 12.335962905337169 1.1584505737357293 12.471267386206474 1.1584505798446543 L 12.764555944690445 1.1584505798446543 C 12.846315081040803 1.157340666668773 12.922100953942023 1.201145976182603 12.961948243841897 1.2725461286449695 L 13.108592522821443 1.5262862295045556 C 13.190145262426247 1.589097818312116 13.302264229390195 1.5942306632689505 13.389214885220614 1.5391332179902655 C 13.476165541051039 1.484035772711584 13.519400406667113 1.380460895228795 13.497427353242141 1.2798958419112458 Z" fill="#a4cb6a" transform="matrix(1,0,0,1,0,0)" fill-rule="evenodd"></path></g><g clip-path="url(#SvgjsClipPath6714c73ef201-c060-46b3-9521-2fd48fbf5089)"><path d=" M 13.643721645875676 1.2889954869075892 L 13.790365924855212 1.0356053723940137 C 13.799593036800964 1.0193229296463393 13.806987855730382 1.0020683521443532 13.812415064654052 0.9841573795300688 L 13.812415064654052 0.9841573795300688 L 13.812415064654052 0.9841573795300688 L 13.812415064654052 0.9841573795300688 L 13.812415064654052 0.9810075024159522 L 13.812415064654052 0.9792575706858847 L 13.812415064654052 0.9792575706858847 L 13.812415064654052 0.9775076389558174 L 13.812415064654052 0.9775076389558174 L 13.812415064654052 0.9757577072257498 L 13.812415064654052 0.9757577072257498 L 13.812415064654052 0.9740077754956825 L 13.812415064654052 0.9740077754956825 L 13.812415064654052 0.9740077754956825 L 13.812415064654052 0.9740077754956825 L 13.812415064654052 0.972257843765615 L 13.812415064654052 0.972257843765615 L 13.812415064654052 0.972257843765615 L 13.812415064654052 0.9705079120355476 L 13.81451498273013 0.9638581714613 L 13.81451498273013 0.9621082397312325 L 13.81451498273013 0.9621082397312325 L 13.81451498273013 0.9621082397312325 L 13.81451498273013 0.9621082397312325 L 13.81451498273013 0.9600083216551508 L 13.81451498273013 0.9600083216551508 L 13.81451498273013 0.9551085128109668 L 13.81451498273013 0.9551085128109668 L 13.81451498273013 0.948108785890701 L 13.81451498273013 0.948108785890701 L 13.81451498273013 0.9425090043544883 L 13.81451498273013 0.9425090043544883 L 13.81451498273013 0.9323594003201058 L 13.81451498273013 0.9323594003201058 L 13.81451498273013 0.9169600010955249 L 13.81451498273013 0.9169600010955249 L 13.81451498273013 0.89211097052859 L 13.81451498273013 0.89211097052859 L 13.81451498273013 0.8760115986119806 L 13.81451498273013 0.8760115986119806 L 13.81451498273013 0.5771232591166869 C 13.8133627026647 0.5037751688656219 13.852628278998095 0.43573276604132516 13.91671099576599 0.40003016803399505 L 14.05110575263507 0.3223331992190581 L 14.191100291040364 0.5641737643141981 C 14.231212142465285 0.6354388493123418 14.30707255434192 0.6790753694183754 14.388842576537835 0.677919326768499 L 14.681781148150906 0.677919326768499 C 14.817085629020212 0.6779193325875353 14.926771579678917 0.7876052878460084 14.926771579823864 0.9229097687153108 C 14.926771579968806 1.0582142495846134 14.817085629545094 1.167900205078087 14.681781148675796 1.1679002111870123 L 14.388492590191825 1.1679002111870123 C 14.306807478340085 1.1667200118671444 14.231039440456108 1.2103806719953218 14.191100291040364 1.2816457736413134 L 14.044805998406838 1.535385874500903 C 13.964129424071924 1.6088439440333668 13.844597376306996 1.6200965415802586 13.75162915854993 1.5629851756980848 C 13.658660940792863 1.5058738098159075 13.61466563077633 1.3941646155166967 13.643721645875676 1.2889954869075892 Z" fill="#64c6c4" transform="matrix(1,0,0,1,0,0)" fill-rule="evenodd"></path></g><g clip-path="url(#SvgjsClipPath6714c73ef201-c060-46b3-9521-2fd48fbf5089)"><path d=" M 14.582385025883143 0.15188984871061784 C 14.669338121932007 0.20149610829404152 14.717834111242624 0.29860841105072555 14.705248789246244 0.3979222145857285 C 14.692663467249865 0.4972360181207277 14.621476739217208 0.5791817933499895 14.524898425599073 0.6055304411524473 C 14.42832011198094 0.6318790889549052 14.325380720621801 0.5974386761738152 14.264103229945167 0.5182762416564516 C 14.202825739268533 0.4391138071390922 14.19528472091811 0.3308281046287449 14.244998188326397 0.2439362577120967 C 14.312802878945025 0.12542360702374944 14.46378883689669 0.0842313799062302 14.582385025883143 0.15188984871061784 Z" fill="#64c6c4" transform="matrix(1,0,0,1,0,0)" fill-rule="evenodd"></path></g><g clip-path="url(#SvgjsClipPath6714c73ef201-c060-46b3-9521-2fd48fbf5089)"><path d=" M 13.79071591120123 0.8686618853457043 L 13.79071591120123 0.5771232591166869 C 13.790420771979033 0.5329637465530627 13.801768012660055 0.4895062290512969 13.823614627726469 0.4511281745519219 C 13.845822913084541 0.41294713900389135 13.877846640520598 0.3814067885857373 13.916361009419981 0.3597817382424715 L 14.170101110279562 0.21348744560894528 C 14.24626093595185 0.17326219986973024 14.287391139332556 0.08816522735791776 14.271597150623403 0.003495638001011825 C 14.26677298211069 -0.02736009003537454 14.25620760816167 -0.05703810674609566 14.240448365828223 -0.08400094850229722 C 14.224793192968825 -0.11079075186682108 14.204395261781407 -0.13450927650334898 14.18025071431395 -0.1539982177049436 C 14.114880980504944 -0.2091950183282037 14.021294789033144 -0.2157078243912915 13.948909739599209 -0.17009758962155497 L 13.69551962508563 -0.023803296988024858 C 13.618134955169706 0.02242673707991627 13.521614098564052 0.02242673707991627 13.444229428648129 -0.023803296988024858 L 13.190489327788546 -0.17009758962155302 C 13.118258824835237 -0.21563323729010753 13.024879711248358 -0.20926647954554867 12.959498339419818 -0.1543482040509559 C 12.93534287911285 -0.13487052407589334 12.914943092879772 -0.11114984240952269 12.899300687905535 -0.08435093484830947 C 12.88358259781417 -0.05721104867177251 12.87291072245414 -0.02744837405657552 12.867801916764353 0.003495638001007939 C 12.851950477638939 0.08826359895251701 12.89326695498643 0.17345221204013317 12.969647943454197 0.21348744560894528 L 13.223388044313786 0.36013172458848575 C 13.26183080726851 0.3818518783203677 13.293832137260326 0.41337016936890947 13.31613442600729 0.45147816089794 C 13.33797900996042 0.48998415763336844 13.349323924132486 0.5335534556771894 13.34903314253253 0.5778232318087116 L 13.34903314253253 0.8707618034217822 C 13.345664786306196 0.9561993887830732 13.398072030916982 1.0339604084893521 13.478528090557425 1.0629043073830444 C 13.537449872413791 1.0848427763284683 13.602299181319967 1.0848427763284683 13.661220963176333 1.0629043073830444 C 13.74229714706571 1.0335416897691045 13.794795104130428 0.9547947541720277 13.79071591120123 0.8686618853457043 Z" fill="#212245" transform="matrix(1,0,0,1,0,0)" fill-rule="evenodd"></path></g><g clip-path="url(#SvgjsClipPath6714c73ef201-c060-46b3-9521-2fd48fbf5089)"><path d=" M 13.570574499558909 -0.5844814233012111 C 13.470341055531476 -0.5854734671608536 13.379411427330703 -0.5258954736001387 13.340299114435272 -0.43360270881010377 C 13.301186801539833 -0.34130994402006687 13.321619822144289 -0.23453810189664165 13.39204486312064 -0.16320759610774604 C 13.462469904096983 -0.09187709031885044 13.568972012384966 -0.07008178046406965 13.661756886448654 -0.1080119082994015 C 13.754541760512346 -0.14594203613473145 13.815276472895857 -0.23610316585893093 13.81556494176817 -0.3363411039778319 C 13.81640740572543 -0.401860644956895 13.790968381419473 -0.4649871937263361 13.744932132444909 -0.5116153373305796 C 13.698895883470335 -0.5582434809348211 13.63609945637913 -0.5844868393662134 13.570574499558909 -0.5844814233012111 Z" fill="#212245" transform="matrix(1,0,0,1,0,0)" fill-rule="evenodd"></path></g></g><g><path d=" M 0.528 1.0799999999999996 Q 0.387 1.0799999999999996 0.28875 1.0327499999999996 Q 0.1905 0.9854999999999997 0.1365 0.8947499999999997 Q 0.0825 0.8039999999999997 0.0765 0.6734999999999998 Q 0.075 0.6119999999999997 0.075 0.5414999999999998 Q 0.075 0.47099999999999975 0.0765 0.40649999999999975 Q 0.0825 0.27749999999999975 0.13725 0.18674999999999975 Q 0.192 0.09599999999999975 0.291 0.0479999999999996 Q 0.39 -2.220446049250313e-16 0.528 -2.220446049250313e-16 Q 0.6285000000000001 -2.220446049250313e-16 0.711 0.025499999999999634 Q 0.7935 0.05099999999999971 0.8535 0.09899999999999975 Q 0.9135 0.1469999999999997 0.9465 0.2114999999999997 Q 0.9795 0.2759999999999997 0.9825 0.3554999999999997 Q 0.9825 0.36899999999999966 0.97275 0.37799999999999967 Q 0.963 0.3869999999999997 0.9495 0.3869999999999997 L 0.7785 0.3869999999999997 Q 0.7605000000000001 0.3869999999999997 0.75 0.37799999999999967 Q 0.7395 0.36899999999999966 0.7335 0.34799999999999975 Q 0.711 0.25949999999999973 0.6585 0.2264999999999997 Q 0.606 0.19349999999999967 0.528 0.19349999999999967 Q 0.435 0.19349999999999967 0.381 0.24449999999999972 Q 0.327 0.29549999999999976 0.3225 0.4139999999999997 Q 0.318 0.5369999999999997 0.3225 0.6659999999999997 Q 0.327 0.7844999999999998 0.381 0.8354999999999997 Q 0.435 0.8864999999999997 0.528 0.8864999999999997 Q 0.606 0.8864999999999997 0.65925 0.8527499999999997 Q 0.7125 0.8189999999999997 0.7335 0.7319999999999998 Q 0.7395 0.7094999999999998 0.75 0.7012499999999997 Q 0.7605000000000001 0.6929999999999997 0.7785 0.6929999999999997 L 0.9495 0.6929999999999997 Q 0.963 0.6929999999999997 0.97275 0.7019999999999997 Q 0.9825 0.7109999999999997 0.9825 0.7244999999999997 Q 0.9795 0.8039999999999997 0.9465 0.8684999999999997 Q 0.9135 0.9329999999999997 0.8535 0.9809999999999998 Q 0.7935 1.0289999999999997 0.711 1.0544999999999998 Q 0.6285000000000001 1.0799999999999996 0.528 1.0799999999999996 M 1.18798974609375 1.0649999999999997 Q 1.1714897460937501 1.0649999999999997 1.16098974609375 1.0544999999999998 Q 1.15048974609375 1.0439999999999998 1.15048974609375 1.0274999999999996 L 1.15048974609375 0.05249999999999977 Q 1.15048974609375 0.03599999999999981 1.16098974609375 0.025499999999999634 Q 1.1714897460937501 0.01499999999999968 1.18798974609375 0.01499999999999968 L 1.35448974609375 0.01499999999999968 Q 1.3709897460937501 0.01499999999999968 1.38148974609375 0.025499999999999634 Q 1.39198974609375 0.03599999999999981 1.39198974609375 0.05249999999999977 L 1.39198974609375 0.8639999999999997 L 1.85698974609375 0.8639999999999997 Q 1.87348974609375 0.8639999999999997 1.88398974609375 0.8744999999999997 Q 1.89448974609375 0.8849999999999998 1.89448974609375 0.9014999999999997 L 1.89448974609375 1.0274999999999996 Q 1.89448974609375 1.0439999999999998 1.88398974609375 1.0544999999999998 Q 1.87348974609375 1.0649999999999997 1.85698974609375 1.0649999999999997 L 1.18798974609375 1.0649999999999997 M 2.0700087890625 1.0649999999999997 Q 2.0535087890625 1.0649999999999997 2.0430087890625 1.0544999999999998 Q 2.0325087890625 1.0439999999999998 2.0325087890625 1.0274999999999996 L 2.0325087890625 0.05249999999999977 Q 2.0325087890625 0.03599999999999981 2.0430087890625 0.025499999999999634 Q 2.0535087890625 0.01499999999999968 2.0700087890625 0.01499999999999968 L 2.7495087890625003 0.01499999999999968 Q 2.7660087890625 0.01499999999999968 2.7765087890625 0.025499999999999634 Q 2.7870087890625 0.03599999999999981 2.7870087890625 0.05249999999999977 L 2.7870087890625 0.17249999999999965 Q 2.7870087890625 0.18749999999999967 2.7765087890625 0.19799999999999973 Q 2.7660087890625 0.20849999999999969 2.7495087890625003 0.20849999999999969 L 2.2635087890625 0.20849999999999969 L 2.2635087890625 0.44399999999999973 L 2.7165087890625 0.44399999999999973 Q 2.7330087890625 0.44399999999999973 2.7435087890625 0.4544999999999997 Q 2.7540087890625 0.46499999999999975 2.7540087890625 0.4814999999999997 L 2.7540087890625 0.5924999999999997 Q 2.7540087890625 0.6074999999999997 2.7435087890625 0.6179999999999997 Q 2.7330087890625 0.6284999999999997 2.7165087890625 0.6284999999999997 L 2.2635087890625 0.6284999999999997 L 2.2635087890625 0.8714999999999997 L 2.7615087890625 0.8714999999999997 Q 2.7780087890625 0.8714999999999997 2.7885087890625 0.8819999999999997 Q 2.7990087890625 0.8924999999999997 2.7990087890625 0.9089999999999997 L 2.7990087890625 1.0274999999999996 Q 2.7990087890625 1.0439999999999998 2.7885087890625 1.0544999999999998 Q 2.7780087890625 1.0649999999999997 2.7615087890625 1.0649999999999997 L 2.0700087890625 1.0649999999999997 M 3.2730087890625 1.0649999999999997 Q 3.2490087890625 1.0649999999999997 3.2347587890625 1.0522499999999997 Q 3.2205087890625 1.0394999999999996 3.2145087890625 1.0214999999999996 L 2.8995087890625 0.05999999999999961 Q 2.8980087890625 0.05249999999999977 2.8980087890625 0.046499999999999764 Q 2.8980087890625 0.03449999999999975 2.9070087890625 0.024749999999999606 Q 2.9160087890625 0.01499999999999968 2.9295087890625 0.01499999999999968 L 3.0870087890625 0.01499999999999968 Q 3.1095087890625 0.01499999999999968 3.1222587890625 0.02774999999999972 Q 3.1350087890625 0.04049999999999976 3.1380087890625 0.05099999999999971 L 3.3720087890625 0.7844999999999998 L 3.6045087890625 0.05099999999999971 Q 3.6090087890625 0.04049999999999976 3.6210087890625 0.02774999999999972 Q 3.6330087890625 0.01499999999999968 3.6555087890625 0.01499999999999968 L 3.8130087890625 0.01499999999999968 Q 3.8265087890625002 0.01499999999999968 3.8355087890625 0.024749999999999606 Q 3.8445087890625 0.03449999999999975 3.8445087890625 0.046499999999999764 Q 3.8445087890625 0.05249999999999977 3.8430087890625 0.05999999999999961 L 3.5280087890625 1.0214999999999996 Q 3.5235087890625 1.0394999999999996 3.5092587890624998 1.0522499999999997 Q 3.4950087890625 1.0649999999999997 3.4695087890625 1.0649999999999997 L 3.2730087890625 1.0649999999999997 M 4.03198388671875 1.0649999999999997 Q 4.01548388671875 1.0649999999999997 4.00498388671875 1.0544999999999998 Q 3.99448388671875 1.0439999999999998 3.99448388671875 1.0274999999999996 L 3.99448388671875 0.05249999999999977 Q 3.99448388671875 0.03599999999999981 4.00498388671875 0.025499999999999634 Q 4.01548388671875 0.01499999999999968 4.03198388671875 0.01499999999999968 L 4.71148388671875 0.01499999999999968 Q 4.72798388671875 0.01499999999999968 4.73848388671875 0.025499999999999634 Q 4.74898388671875 0.03599999999999981 4.74898388671875 0.05249999999999977 L 4.74898388671875 0.17249999999999965 Q 4.74898388671875 0.18749999999999967 4.73848388671875 0.19799999999999973 Q 4.72798388671875 0.20849999999999969 4.71148388671875 0.20849999999999969 L 4.22548388671875 0.20849999999999969 L 4.22548388671875 0.44399999999999973 L 4.67848388671875 0.44399999999999973 Q 4.69498388671875 0.44399999999999973 4.70548388671875 0.4544999999999997 Q 4.71598388671875 0.46499999999999975 4.71598388671875 0.4814999999999997 L 4.71598388671875 0.5924999999999997 Q 4.71598388671875 0.6074999999999997 4.70548388671875 0.6179999999999997 Q 4.69498388671875 0.6284999999999997 4.67848388671875 0.6284999999999997 L 4.22548388671875 0.6284999999999997 L 4.22548388671875 0.8714999999999997 L 4.72348388671875 0.8714999999999997 Q 4.7399838867187505 0.8714999999999997 4.75048388671875 0.8819999999999997 Q 4.76098388671875 0.8924999999999997 4.76098388671875 0.9089999999999997 L 4.76098388671875 1.0274999999999996 Q 4.76098388671875 1.0439999999999998 4.75048388671875 1.0544999999999998 Q 4.7399838867187505 1.0649999999999997 4.72348388671875 1.0649999999999997 L 4.03198388671875 1.0649999999999997 M 4.9769912109375 1.0649999999999997 Q 4.9604912109375 1.0649999999999997 4.9499912109375 1.0544999999999998 Q 4.9394912109375 1.0439999999999998 4.9394912109375 1.0274999999999996 L 4.9394912109375 0.05249999999999977 Q 4.9394912109375 0.03599999999999981 4.9499912109375 0.025499999999999634 Q 4.9604912109375 0.01499999999999968 4.9769912109375 0.01499999999999968 L 5.3744912109375 0.01499999999999968 Q 5.5619912109375 0.01499999999999968 5.6699912109375 0.10124999999999973 Q 5.7779912109375005 0.18749999999999967 5.7779912109375005 0.3494999999999997 Q 5.7779912109375005 0.45899999999999974 5.7254912109375 0.5324999999999998 Q 5.6729912109375 0.6059999999999997 5.5844912109375 0.6419999999999997 L 5.7959912109375 1.0169999999999997 Q 5.8004912109374995 1.0259999999999998 5.8004912109374995 1.0334999999999996 Q 5.8004912109374995 1.0454999999999997 5.7914912109375 1.0552499999999998 Q 5.7824912109375 1.0649999999999997 5.7689912109375 1.0649999999999997 L 5.6024912109375 1.0649999999999997 Q 5.5754912109375 1.0649999999999997 5.5619912109375 1.0507499999999996 Q 5.5484912109375 1.0364999999999998 5.5424912109375 1.0244999999999997 L 5.3594912109375 0.6809999999999997 L 5.1779912109375 0.6809999999999997 L 5.1779912109375 1.0274999999999996 Q 5.1779912109375 1.0439999999999998 5.1674912109375 1.0544999999999998 Q 5.1569912109375 1.0649999999999997 5.1404912109375 1.0649999999999997 L 4.9769912109375 1.0649999999999997 M 5.1779912109375 0.4904999999999997 L 5.3699912109375 0.4904999999999997 Q 5.4524912109375 0.4904999999999997 5.4922412109375 0.45299999999999974 Q 5.5319912109375 0.41549999999999976 5.5319912109375 0.34799999999999975 Q 5.5319912109375 0.28049999999999975 5.4929912109375 0.24149999999999971 Q 5.4539912109375 0.20249999999999968 5.3699912109375 0.20249999999999968 L 5.1779912109375 0.20249999999999968 L 5.1779912109375 0.4904999999999997 M 6.3750153808593755 1.0799999999999996 Q 6.2340153808593755 1.0799999999999996 6.135765380859375 1.0327499999999996 Q 6.037515380859375 0.9854999999999997 5.983515380859375 0.8947499999999997 Q 5.929515380859375 0.8039999999999997 5.923515380859375 0.6734999999999998 Q 5.922015380859375 0.6119999999999997 5.922015380859375 0.5414999999999998 Q 5.922015380859375 0.47099999999999975 5.923515380859375 0.40649999999999975 Q 5.929515380859375 0.27749999999999975 5.984265380859375 0.18674999999999975 Q 6.039015380859375 0.09599999999999975 6.138015380859375 0.0479999999999996 Q 6.237015380859375 -2.220446049250313e-16 6.3750153808593755 -2.220446049250313e-16 Q 6.475515380859375 -2.220446049250313e-16 6.558015380859375 0.025499999999999634 Q 6.640515380859375 0.05099999999999971 6.700515380859375 0.09899999999999975 Q 6.760515380859375 0.1469999999999997 6.793515380859375 0.2114999999999997 Q 6.826515380859375 0.2759999999999997 6.829515380859375 0.3554999999999997 Q 6.829515380859375 0.36899999999999966 6.819765380859375 0.37799999999999967 Q 6.810015380859375 0.3869999999999997 6.7965153808593755 0.3869999999999997 L 6.625515380859375 0.3869999999999997 Q 6.607515380859375 0.3869999999999997 6.597015380859375 0.37799999999999967 Q 6.586515380859375 0.36899999999999966 6.580515380859375 0.34799999999999975 Q 6.558015380859375 0.25949999999999973 6.505515380859375 0.2264999999999997 Q 6.453015380859375 0.19349999999999967 6.3750153808593755 0.19349999999999967 Q 6.282015380859375 0.19349999999999967 6.228015380859375 0.24449999999999972 Q 6.174015380859375 0.29549999999999976 6.169515380859375 0.4139999999999997 Q 6.165015380859375 0.5369999999999997 6.169515380859375 0.6659999999999997 Q 6.174015380859375 0.7844999999999998 6.228015380859375 0.8354999999999997 Q 6.282015380859375 0.8864999999999997 6.3750153808593755 0.8864999999999997 Q 6.453015380859375 0.8864999999999997 6.506265380859375 0.8527499999999997 Q 6.559515380859375 0.8189999999999997 6.580515380859375 0.7319999999999998 Q 6.586515380859375 0.7094999999999998 6.597015380859375 0.7012499999999997 Q 6.607515380859375 0.6929999999999997 6.625515380859375 0.6929999999999997 L 6.7965153808593755 0.6929999999999997 Q 6.810015380859375 0.6929999999999997 6.819765380859375 0.7019999999999997 Q 6.829515380859375 0.7109999999999997 6.829515380859375 0.7244999999999997 Q 6.826515380859375 0.8039999999999997 6.793515380859375 0.8684999999999997 Q 6.760515380859375 0.9329999999999997 6.700515380859375 0.9809999999999998 Q 6.640515380859375 1.0289999999999997 6.558015380859375 1.0544999999999998 Q 6.475515380859375 1.0799999999999996 6.3750153808593755 1.0799999999999996 M 7.4145051269531255 1.0799999999999996 Q 7.278005126953125 1.0799999999999996 7.179005126953125 1.0349999999999997 Q 7.080005126953125 0.9899999999999998 7.024505126953125 0.8992499999999997 Q 6.969005126953125 0.8084999999999998 6.964505126953125 0.6704999999999997 Q 6.963005126953125 0.6059999999999997 6.963005126953125 0.5422499999999997 Q 6.963005126953125 0.4784999999999997 6.964505126953125 0.41249999999999976 Q 6.969005126953125 0.27749999999999975 7.025255126953125 0.1852499999999997 Q 7.081505126953125 0.09299999999999975 7.181255126953125 0.046499999999999764 Q 7.281005126953125 -2.220446049250313e-16 7.4145051269531255 -2.220446049250313e-16 Q 7.546505126953125 -2.220446049250313e-16 7.646255126953125 0.046499999999999764 Q 7.746005126953125 0.09299999999999975 7.803005126953125 0.1852499999999997 Q 7.860005126953125 0.27749999999999975 7.863005126953125 0.41249999999999976 Q 7.866005126953125 0.4784999999999997 7.866005126953125 0.5422499999999997 Q 7.866005126953125 0.6059999999999997 7.863005126953125 0.6704999999999997 Q 7.8585051269531245 0.8084999999999998 7.803005126953125 0.8992499999999997 Q 7.747505126953125 0.9899999999999998 7.6485051269531255 1.0349999999999997 Q 7.549505126953125 1.0799999999999996 7.4145051269531255 1.0799999999999996 M 7.4145051269531255 0.8864999999999997 Q 7.501505126953125 0.8864999999999997 7.557755126953125 0.8332499999999997 Q 7.614005126953125 0.7799999999999997 7.617005126953125 0.6629999999999997 Q 7.620005126953125 0.5969999999999998 7.620005126953125 0.5392499999999997 Q 7.620005126953125 0.4814999999999997 7.617005126953125 0.4169999999999997 Q 7.615505126953125 0.33899999999999975 7.588505126953125 0.28949999999999976 Q 7.561505126953125 0.23999999999999966 7.517255126953125 0.21674999999999967 Q 7.473005126953125 0.19349999999999967 7.4145051269531255 0.19349999999999967 Q 7.356005126953125 0.19349999999999967 7.311005126953125 0.21674999999999967 Q 7.266005126953125 0.23999999999999966 7.239755126953125 0.28949999999999976 Q 7.213505126953125 0.33899999999999975 7.210505126953125 0.4169999999999997 Q 7.209005126953125 0.4814999999999997 7.209005126953125 0.5392499999999997 Q 7.209005126953125 0.5969999999999998 7.210505126953125 0.6629999999999997 Q 7.215005126953125 0.7799999999999997 7.270505126953125 0.8332499999999997 Q 7.326005126953125 0.8864999999999997 7.4145051269531255 0.8864999999999997 M 8.089509521484375 1.0649999999999997 Q 8.073009521484375 1.0649999999999997 8.062509521484374 1.0544999999999998 Q 8.052009521484376 1.0439999999999998 8.052009521484376 1.0274999999999996 L 8.052009521484376 0.05249999999999977 Q 8.052009521484376 0.03599999999999981 8.062509521484374 0.025499999999999634 Q 8.073009521484375 0.01499999999999968 8.089509521484375 0.01499999999999968 L 8.256009521484375 0.01499999999999968 Q 8.272509521484375 0.01499999999999968 8.283009521484376 0.025499999999999634 Q 8.293509521484374 0.03599999999999981 8.293509521484374 0.05249999999999977 L 8.293509521484374 0.8639999999999997 L 8.758509521484376 0.8639999999999997 Q 8.775009521484375 0.8639999999999997 8.785509521484375 0.8744999999999997 Q 8.796009521484375 0.8849999999999998 8.796009521484375 0.9014999999999997 L 8.796009521484375 1.0274999999999996 Q 8.796009521484375 1.0439999999999998 8.785509521484375 1.0544999999999998 Q 8.775009521484375 1.0649999999999997 8.758509521484376 1.0649999999999997 L 8.089509521484375 1.0649999999999997 M 8.971528564453125 1.0649999999999997 Q 8.955028564453125 1.0649999999999997 8.944528564453124 1.0544999999999998 Q 8.934028564453126 1.0439999999999998 8.934028564453126 1.0274999999999996 L 8.934028564453126 0.05249999999999977 Q 8.934028564453126 0.03599999999999981 8.944528564453124 0.025499999999999634 Q 8.955028564453125 0.01499999999999968 8.971528564453125 0.01499999999999968 L 9.138028564453125 0.01499999999999968 Q 9.154528564453125 0.01499999999999968 9.165028564453126 0.025499999999999634 Q 9.175528564453124 0.03599999999999981 9.175528564453124 0.05249999999999977 L 9.175528564453124 0.8639999999999997 L 9.640528564453126 0.8639999999999997 Q 9.657028564453125 0.8639999999999997 9.667528564453125 0.8744999999999997 Q 9.678028564453125 0.8849999999999998 9.678028564453125 0.9014999999999997 L 9.678028564453125 1.0274999999999996 Q 9.678028564453125 1.0439999999999998 9.667528564453125 1.0544999999999998 Q 9.657028564453125 1.0649999999999997 9.640528564453126 1.0649999999999997 L 8.971528564453125 1.0649999999999997 M 9.754547607421875 1.0649999999999997 Q 9.741047607421875 1.0649999999999997 9.732047607421874 1.0552499999999998 Q 9.723047607421876 1.0454999999999997 9.723047607421876 1.0334999999999996 Q 9.723047607421876 1.0259999999999998 9.724547607421876 1.0199999999999998 L 10.081547607421875 0.05549999999999966 Q 10.086047607421875 0.0389999999999997 10.099547607421876 0.02699999999999969 Q 10.113047607421874 0.01499999999999968 10.137047607421875 0.01499999999999968 L 10.329047607421876 0.01499999999999968 Q 10.353047607421875 0.01499999999999968 10.366547607421875 0.02699999999999969 Q 10.380047607421876 0.0389999999999997 10.384547607421876 0.05549999999999966 L 10.741547607421875 1.0199999999999998 Q 10.743047607421875 1.0259999999999998 10.743047607421875 1.0334999999999996 Q 10.743047607421875 1.0454999999999997 10.734047607421875 1.0552499999999998 Q 10.725047607421875 1.0649999999999997 10.711547607421874 1.0649999999999997 L 10.555547607421875 1.0649999999999997 Q 10.533047607421874 1.0649999999999997 10.522547607421876 1.0544999999999998 Q 10.512047607421875 1.0439999999999998 10.509047607421875 1.0349999999999997 L 10.444547607421875 0.8669999999999998 L 10.021547607421875 0.8669999999999998 L 9.957047607421876 1.0349999999999997 Q 9.954047607421876 1.0439999999999998 9.943547607421875 1.0544999999999998 Q 9.933047607421875 1.0649999999999997 9.910547607421876 1.0649999999999997 L 9.754547607421875 1.0649999999999997 M 10.077047607421875 0.6734999999999998 L 10.387547607421874 0.6734999999999998 L 10.233047607421875 0.24149999999999971 L 10.077047607421875 0.6734999999999998 M 10.909516845703125 1.0649999999999997 Q 10.893016845703125 1.0649999999999997 10.882516845703124 1.0544999999999998 Q 10.872016845703126 1.0439999999999998 10.872016845703126 1.0274999999999996 L 10.872016845703126 0.05249999999999977 Q 10.872016845703126 0.03599999999999981 10.882516845703124 0.025499999999999634 Q 10.893016845703125 0.01499999999999968 10.909516845703125 0.01499999999999968 L 11.355016845703124 0.01499999999999968 Q 11.479516845703126 0.01499999999999968 11.559016845703125 0.05099999999999971 Q 11.638516845703125 0.08699999999999974 11.676766845703124 0.1529999999999997 Q 11.715016845703126 0.21899999999999975 11.715016845703126 0.30749999999999966 Q 11.715016845703126 0.36299999999999966 11.694766845703125 0.4049999999999997 Q 11.674516845703124 0.44699999999999973 11.645266845703125 0.47399999999999975 Q 11.616016845703125 0.5009999999999997 11.589016845703124 0.5144999999999997 Q 11.647516845703125 0.5414999999999998 11.691766845703125 0.6037499999999998 Q 11.736016845703125 0.6659999999999997 11.736016845703125 0.7514999999999997 Q 11.736016845703125 0.8459999999999998 11.694016845703125 0.9164999999999998 Q 11.652016845703125 0.9869999999999998 11.569516845703125 1.0259999999999998 Q 11.487016845703124 1.0649999999999997 11.368516845703125 1.0649999999999997 L 10.909516845703125 1.0649999999999997 M 11.110516845703126 0.8894999999999997 L 11.340016845703126 0.8894999999999997 Q 11.413516845703125 0.8894999999999997 11.451016845703125 0.8482499999999997 Q 11.488516845703124 0.8069999999999997 11.488516845703124 0.7499999999999998 Q 11.488516845703124 0.6914999999999998 11.450266845703124 0.6517499999999997 Q 11.412016845703125 0.6119999999999997 11.340016845703126 0.6119999999999997 L 11.110516845703126 0.6119999999999997 L 11.110516845703126 0.8894999999999997 M 11.110516845703126 0.43949999999999967 L 11.326516845703125 0.43949999999999967 Q 11.397016845703124 0.43949999999999967 11.432266845703126 0.40424999999999967 Q 11.467516845703125 0.36899999999999966 11.467516845703125 0.31349999999999967 Q 11.467516845703125 0.2579999999999997 11.432266845703126 0.22424999999999973 Q 11.397016845703124 0.19049999999999967 11.326516845703125 0.19049999999999967 L 11.110516845703126 0.19049999999999967 L 11.110516845703126 0.43949999999999967" fill="#212245" fill-rule="nonzero"></path></g><g></g></g><defs><clipPath id="SvgjsClipPath6716"><path d=" M 12.20352783203125 -0.5844814233012111 h 2.732343403325256 v 2.233962846602422 h -2.732343403325256 Z"></path></clipPath><clipPath id="SvgjsClipPath6714c73ef201-c060-46b3-9521-2fd48fbf5089"><path d=" M 12.20352783203125 -0.5844814233012109 L 14.935871235356506 -0.5844814233012109 L 14.935871235356506 1.6494814233012103 L 12.20352783203125 1.6494814233012103 Z"></path></clipPath></defs></svg>